name ./resultDataOpenSim/trcMotMarkerGrf/sub09/grf-01-08.mot
datacolumns 19
datarows 20
range 0.46800000 0.54400000
endheader

                time	     ground_force_vx	     ground_force_vy	     ground_force_vz	     ground_force_px	     ground_force_py	     ground_force_pz	   l_ground_force_vx	   l_ground_force_vy	   l_ground_force_vz	   l_ground_force_px	   l_ground_force_py	   l_ground_force_pz	     ground_torque_x	     ground_torque_y	     ground_torque_z	   l_ground_torque_x	   l_ground_torque_y	   l_ground_torque_z	
          0.46800000	         14.50966565	        407.45968992	        -21.65738756	         -0.73414963	          0.00000000	          0.10519350	          0.00000000	          0.00000000	          0.00000000	          0.00000000	          0.00000000	          0.00000000	          0.00000000	          4.06813073	          0.00000000	          0.00000000	          0.00000000	          0.00000000	
          0.47200000	         17.46810117	        413.61355594	        -23.73627608	         -0.73255103	          0.00000000	          0.10601964	          0.00000000	          0.00000000	          0.00000000	          0.00000000	          0.00000000	          0.00000000	          0.00000000	          4.07119646	          0.00000000	          0.00000000	          0.00000000	          0.00000000	
          0.47600000	         20.72645408	        420.39430006	        -25.15906261	         -0.73102728	          0.00000000	          0.10674108	          0.00000000	          0.00000000	          0.00000000	          0.00000000	          0.00000000	          0.00000000	          0.00000000	          4.13224173	          0.00000000	          0.00000000	          0.00000000	          0.00000000	
          0.48000000	         24.22852561	        427.83047557	        -25.84124731	         -0.72959046	          0.00000000	          0.10735997	          0.00000000	          0.00000000	          0.00000000	          0.00000000	          0.00000000	          0.00000000	          0.00000000	          4.25830234	          0.00000000	          0.00000000	          0.00000000	          0.00000000	
          0.48400000	         27.92965460	        435.95371876	        -25.84022253	         -0.72825036	          0.00000000	          0.10789157	          0.00000000	          0.00000000	          0.00000000	          0.00000000	          0.00000000	          0.00000000	          0.00000000	          4.44036844	          0.00000000	          0.00000000	          0.00000000	          0.00000000	
          0.48800000	         31.79840058	        444.78533668	        -25.36126842	         -0.72700524	          0.00000000	          0.10835830	          0.00000000	          0.00000000	          0.00000000	          0.00000000	          0.00000000	          0.00000000	          0.00000000	          4.65341424	          0.00000000	          0.00000000	          0.00000000	          0.00000000	
          0.49200000	         35.81076234	        454.33786451	        -24.72330052	         -0.72584105	          0.00000000	          0.10878261	          0.00000000	          0.00000000	          0.00000000	          0.00000000	          0.00000000	          0.00000000	          0.00000000	          4.86075209	          0.00000000	          0.00000000	          0.00000000	          0.00000000	
          0.49600000	         39.94157670	        464.62266235	        -24.28259793	         -0.72473571	          0.00000000	          0.10918173	          0.00000000	          0.00000000	          0.00000000	          0.00000000	          0.00000000	          0.00000000	          0.00000000	          5.02209678	          0.00000000	          0.00000000	          0.00000000	          0.00000000	
          0.50000000	         44.15477683	        475.64943383	        -24.33246708	         -0.72367982	          0.00000000	          0.10956137	          0.00000000	          0.00000000	          0.00000000	          0.00000000	          0.00000000	          0.00000000	          0.00000000	          5.10360236	          0.00000000	          0.00000000	          0.00000000	          0.00000000	
          0.50400000	         48.39739898	        487.41967435	        -25.01011218	         -0.72267487	          0.00000000	          0.10991134	          0.00000000	          0.00000000	          0.00000000	          0.00000000	          0.00000000	          0.00000000	          0.00000000	          5.08731349	          0.00000000	          0.00000000	          0.00000000	          0.00000000	
          0.50800000	         52.60084889	        499.91913315	        -26.25232111	         -0.72171239	          0.00000000	          0.11020686	          0.00000000	          0.00000000	          0.00000000	          0.00000000	          0.00000000	          0.00000000	          0.00000000	          4.97731143	          0.00000000	          0.00000000	          0.00000000	          0.00000000	
          0.51200000	         56.69334878	        513.11073446	        -27.82972933	         -0.72078401	          0.00000000	          0.11041800	          0.00000000	          0.00000000	          0.00000000	          0.00000000	          0.00000000	          0.00000000	          0.00000000	          4.80063281	          0.00000000	          0.00000000	          0.00000000	          0.00000000	
          0.51600000	         60.62585801	        526.93626596	        -29.43425393	         -0.71989073	          0.00000000	          0.11052322	          0.00000000	          0.00000000	          0.00000000	          0.00000000	          0.00000000	          0.00000000	          0.00000000	          4.60257015	          0.00000000	          0.00000000	          0.00000000	          0.00000000	
          0.52000000	         64.39736384	        541.32329939	        -30.75440842	         -0.71905859	          0.00000000	          0.11050909	          0.00000000	          0.00000000	          0.00000000	          0.00000000	          0.00000000	          0.00000000	          0.00000000	          4.43746001	          0.00000000	          0.00000000	          0.00000000	          0.00000000	
          0.52400000	         68.06022206	        556.18843836	        -31.51432559	         -0.71831419	          0.00000000	          0.11037099	          0.00000000	          0.00000000	          0.00000000	          0.00000000	          0.00000000	          0.00000000	          0.00000000	          4.35704896	          0.00000000	          0.00000000	          0.00000000	          0.00000000	
          0.52800000	         71.70198539	        571.43999109	        -31.50690020	         -0.71766346	          0.00000000	          0.11011607	          0.00000000	          0.00000000	          0.00000000	          0.00000000	          0.00000000	          0.00000000	          0.00000000	          4.39902245	          0.00000000	          0.00000000	          0.00000000	          0.00000000	
          0.53200000	         75.41574911	        586.97947530	        -30.63576649	         -0.71709098	          0.00000000	          0.10976294	          0.00000000	          0.00000000	          0.00000000	          0.00000000	          0.00000000	          0.00000000	          0.00000000	          4.57829542	          0.00000000	          0.00000000	          0.00000000	          0.00000000	
          0.53600000	         79.27201431	        602.70589571	        -28.94587521	         -0.71656707	          0.00000000	          0.10933766	          0.00000000	          0.00000000	          0.00000000	          0.00000000	          0.00000000	          0.00000000	          0.00000000	          4.88308100	          0.00000000	          0.00000000	          0.00000000	          0.00000000	
          0.54000000	         83.30016943	        618.52476345	        -26.62771661	         -0.71606781	          0.00000000	          0.10886767	          0.00000000	          0.00000000	          0.00000000	          0.00000000	          0.00000000	          0.00000000	          0.00000000	          5.27661234	          0.00000000	          0.00000000	          0.00000000	          0.00000000	
          0.54400000	         87.48463996	        634.34541096	        -23.99449603	         -0.71558632	          0.00000000	          0.10837661	          0.00000000	          0.00000000	          0.00000000	          0.00000000	          0.00000000	          0.00000000	          0.00000000	          5.70399982	          0.00000000	          0.00000000	          0.00000000	          0.00000000	
